P2
6 120
255
0 0 255 255 0 0 4 4 255 255 4 4 8 8 255 255 8 8 12 12 255 255 12 12 17 17 255 255 17 17 21 21 255 255 21 21 25 25 255 255 25 25 29 29 255 255 29 29 34 34 255 255 34 34 38 38 255 255 38 38 42 42 255 255 42 42 46 46 255 255 46 46 51 51 255 255 51 51 55 55 255 255 55 55 59 59 255 255 59 59 63 63 255 255 63 63 68 68 255 255 68 68 72 72 255 255 72 72 76 76 255 255 76 76 80 80 255 255 80 80 85 85 255 255 85 85 89 89 255 255 89 89 93 93 255 255 93 93 97 97 255 255 97 97 102 102 255 255 102 102 106 106 255 255 106 106 110 110 255 255 110 110 114 114 255 255 114 114 119 119 255 255 119 119 123 123 255 255 123 123 127 127 255 255 127 127 131 131 255 255 131 131 136 136 255 255 136 136 140 140 255 255 140 140 144 144 255 255 144 144 148 148 255 255 148 148 153 153 255 255 153 153 157 157 255 255 157 157 161 161 255 255 161 161 165 165 255 255 165 165 170 170 255 255 170 170 174 174 255 255 174 174 178 178 255 255 178 178 182 182 255 255 182 182 187 187 255 255 187 187 191 191 255 255 191 191 195 195 255 255 195 195 199 199 255 255 199 199 204 204 255 255 204 204 208 208 255 255 208 208 212 212 255 255 212 212 216 216 255 255 216 216 221 221 255 255 221 221 225 225 255 255 225 225 229 229 255 255 229 229 233 233 255 255 233 233 238 238 255 255 238 238 242 242 255 255 242 242 246 246 255 255 246 246 250 250 255 255 250 250 0 0 0 255 255 255 4 4 4 251 251 251 8 8 8 247 247 247 12 12 12 243 243 243 17 17 17 238 238 238 21 21 21 234 234 234 25 25 25 230 230 230 29 29 29 226 226 226 34 34 34 221 221 221 38 38 38 217 217 217 42 42 42 213 213 213 46 46 46 209 209 209 51 51 51 204 204 204 55 55 55 200 200 200 59 59 59 196 196 196 63 63 63 192 192 192 68 68 68 187 187 187 72 72 72 183 183 183 76 76 76 179 179 179 80 80 80 175 175 175 85 85 85 170 170 170 89 89 89 166 166 166 93 93 93 162 162 162 97 97 97 158 158 158 102 102 102 153 153 153 106 106 106 149 149 149 110 110 110 145 145 145 114 114 114 141 141 141 119 119 119 136 136 136 123 123 123 132 132 132 127 127 127 128 128 128 131 131 131 124 124 124 136 136 136 119 119 119 140 140 140 115 115 115 144 144 144 111 111 111 148 148 148 107 107 107 153 153 153 102 102 102 157 157 157 98 98 98 161 161 161 94 94 94 165 165 165 90 90 90 170 170 170 85 85 85 174 174 174 81 81 81 178 178 178 77 77 77 182 182 182 73 73 73 187 187 187 68 68 68 191 191 191 64 64 64 195 195 195 60 60 60 199 199 199 56 56 56 204 204 204 51 51 51 208 208 208 47 47 47 212 212 212 43 43 43 216 216 216 39 39 39 221 221 221 34 34 34 225 225 225 30 30 30 229 229 229 26 26 26 233 233 233 22 22 22 238 238 238 17 17 17 242 242 242 13 13 13 246 246 246 9 9 9 250 250 250 5 5 5 