P2
6 120
255
0 0 255 255 0 0 4 4 255 255 4 4 8 8 255 255 8 8 12 12 255 255 12 12 17 17 255 255 17 17 21 21 255 255 21 21 25 25 255 255 25 25 30 30 255 255 30 30 34 34 255 255 34 34 38 38 255 255 38 38 43 43 255 255 43 43 47 47 255 255 47 47 51 51 255 255 51 51 56 56 255 255 56 56 60 60 255 255 60 60 64 64 255 255 64 64 69 69 255 255 69 69 73 73 255 255 73 73 77 77 255 255 77 77 82 82 255 255 82 82 86 86 255 255 86 86 90 90 255 255 90 90 95 95 255 255 95 95 99 99 255 255 99 99 103 103 255 255 103 103 108 108 255 255 108 108 112 112 255 255 112 112 116 116 255 255 116 116 121 121 255 255 121 121 125 125 255 255 125 125 129 129 255 255 129 129 133 133 255 255 133 133 138 138 255 255 138 138 142 142 255 255 142 142 146 146 255 255 146 146 151 151 255 255 151 151 155 155 255 255 155 155 159 159 255 255 159 159 164 164 255 255 164 164 168 168 255 255 168 168 172 172 255 255 172 172 177 177 255 255 177 177 181 181 255 255 181 181 185 185 255 255 185 185 190 190 255 255 190 190 194 194 255 255 194 194 198 198 255 255 198 198 203 203 255 255 203 203 207 207 255 255 207 207 211 211 255 255 211 211 216 216 255 255 216 216 220 220 255 255 220 220 224 224 255 255 224 224 229 229 255 255 229 229 233 233 255 255 233 233 237 237 255 255 237 237 242 242 255 255 242 242 246 246 255 255 246 246 250 250 255 255 250 250 255 255 255 255 255 255 0 0 0 255 255 255 4 4 4 251 251 251 8 8 8 247 247 247 12 12 12 243 243 243 17 17 17 238 238 238 21 21 21 234 234 234 25 25 25 230 230 230 30 30 30 225 225 225 34 34 34 221 221 221 38 38 38 217 217 217 43 43 43 212 212 212 47 47 47 208 208 208 51 51 51 204 204 204 56 56 56 199 199 199 60 60 60 195 195 195 64 64 64 191 191 191 69 69 69 186 186 186 73 73 73 182 182 182 77 77 77 178 178 178 82 82 82 173 173 173 86 86 86 169 169 169 90 90 90 165 165 165 95 95 95 160 160 160 99 99 99 156 156 156 103 103 103 152 152 152 108 108 108 147 147 147 112 112 112 143 143 143 116 116 116 139 139 139 121 121 121 134 134 134 125 125 125 130 130 130 129 129 129 126 126 126 133 133 133 122 122 122 138 138 138 117 117 117 142 142 142 113 113 113 146 146 146 109 109 109 151 151 151 104 104 104 155 155 155 100 100 100 159 159 159 96 96 96 164 164 164 91 91 91 168 168 168 87 87 87 172 172 172 83 83 83 177 177 177 78 78 78 181 181 181 74 74 74 185 185 185 70 70 70 190 190 190 65 65 65 194 194 194 61 61 61 198 198 198 57 57 57 203 203 203 52 52 52 207 207 207 48 48 48 211 211 211 44 44 44 216 216 216 39 39 39 220 220 220 35 35 35 224 224 224 31 31 31 229 229 229 26 26 26 233 233 233 22 22 22 237 237 237 18 18 18 242 242 242 13 13 13 246 246 246 9 9 9 250 250 250 5 5 5 255 255 255 0 0 0 